<?xml version="1.0" encoding="utf-8"?>
<!-- Generator: Adobe Illustrator 16.0.0, SVG Export Plug-In . SVG Version: 6.00 Build 0)  -->
<!DOCTYPE svg PUBLIC "-//W3C//DTD SVG 1.1//EN" "http://www.w3.org/Graphics/SVG/1.1/DTD/svg11.dtd">
<svg version="1.1" id="Layer_2" xmlns="http://www.w3.org/2000/svg" xmlns:xlink="http://www.w3.org/1999/xlink" x="0px" y="0px"
	 width="3233.354px" height="3347.33px" viewBox="0 0 3233.354 3347.33" enable-background="new 0 0 3233.354 3347.33"
	 xml:space="preserve">
<g>
	<path fill="#126FF5" d="M1860.779,2101.939c5.556-277.777-455.556,227.778-709.433,65.876c16.59,197.34,64.41,784.55,78.7,960.17
		c123.37,32.72,252.97,50.149,386.63,50.149c117.399,0,231.67-13.449,341.34-38.899c12.689-179.521,65.05-920.39,66.96-945.271
		C2027.156,2165.635,1857.162,2282.779,1860.779,2101.939z"/>
	<path fill="#126FF5" d="M1616.677,169.195c-830.89,0-1504.47,673.58-1504.47,1504.47c0,664.59,430.92,1228.53,1028.59,1427.65
		l-64.29-995.641l-4.13-64.04l-2.12-32.739l-13.141-203.59l-8.5-131.641c39.561,0,77.681,0,114.41,0c67.69,0,130.66,0,189.24,0
		c10.85,0,21.54,0,32.09,0c21.54,0,42.46,0,62.78,0c687.25,0,687.25,0,687.25,0l-92.471,1443.521
		c623.82-183.46,1079.23-760.301,1079.23-1443.521C3121.146,842.775,2447.576,169.195,1616.677,169.195z M1004.387,2012.545
		c-177.061-7.819-318.28-156.51-318.51-338.88c43.3,0,102.63,0,183.93,0c4.42,70.37,58.54,127.29,127.73,136.15L1004.387,2012.545z
		 M873.887,1628.635c-32.86,0-89.05,0-185.16,0c20.22-157.17,145.86-280.51,302.18-293.84c0,163.55,0,182.79,0,185.05
		C933.667,1529.855,887.837,1572.935,873.887,1628.635z M990.906,1237.825c0,23.25,0,44.58,0,64.15
		c-174.06,13.52-314.01,151.399-334.52,326.66c-19.57,0-40.59,0-63.17,0C614.187,1417.995,782.146,1251.635,990.906,1237.825z
		 M591.007,1673.665c12.51,0,32.1,0,62.78,0c0.229,200.811,156.399,364.38,351.71,371.66l2.17,64.1
		C776.667,2103.266,591.236,1910.565,591.007,1673.665z M1156.236,1619.165c-15.85-48.94-56.76-86.63-107.62-97.98
		c0,0-5.109-99.43-9.109-186.97c156.729,9.66,284.21,129.76,308.55,284.95C1301.437,1619.165,1239.236,1619.165,1156.236,1619.165z
		 M1380.526,1619.165c-24.79-173.79-167.35-308.67-342.489-317.8c-1.07-24.72-1.98-47.1-2.54-64.16
		c211.01,8.11,382.92,171.91,408.38,381.96C1428.677,1619.165,1408.177,1619.165,1380.526,1619.165z M2011.526,1637.355
		c0,0,0,0-161.68,0l325.68-456.18l86.61,98.17L2011.526,1637.355z M2665.187,1296.665l-369.561-30.03l-71.6-106.24l441.16,31.18
		C2665.187,1191.575,2665.187,1191.575,2665.187,1296.665z"/>
</g>
</svg>
